<?xml version="1.0" encoding="UTF-8"?>
<svg id="Capa_2" data-name="Capa 2" xmlns="http://www.w3.org/2000/svg" viewBox="0 0 160 160">
  <defs>
    <style>
      .cls-1 {
        fill: none;
      }

      .cls-2 {
        fill: #7e8083;
        stroke: #7e8083;
        stroke-miterlimit: 10;
      }

      .cls-2, .cls-3, .cls-4, .cls-5 {
        fill-rule: evenodd;
      }

      .cls-3, .cls-6 {
        fill: #fff;
      }

      .cls-7 {
        fill: #eff1ef;
      }

      .cls-4 {
        fill: #dc0e3d;
        opacity: .1;
      }

      .cls-8, .cls-5 {
        fill: #949497;
      }

      .cls-9 {
        fill: #cf2b49;
      }
    </style>
  </defs>
  <g id="Capa_1-2" data-name="Capa 1">
    <g>
      <rect class="cls-1" width="160" height="160"/>
      <path class="cls-4" d="M134.87,153.94c-1.47,1.47-3.4,2.21-5.32,2.21-1.93,0-3.86-.74-5.33-2.21,0,0-7.88-7.88-12.57-12.57-1.99-1.99-4.95-2.59-7.55-1.53-6.16,2.51-12.65,4-19.19,4.43l-.4-.4c-16.98,1.07-34.32-4.88-47.3-17.85-14.51-14.51-20.24-34.46-17.19-53.28-.26-1.35-.92-2.6-1.92-3.6-2.95-2.96-7.45-7.47-7.45-7.47-2.94-2.94-2.94-7.71,0-10.65,1.47-1.47,3.39-2.21,5.32-2.2,1.93,0,3.85.73,5.32,2.2l16.84,16.84c2.94,2.94,7.71,2.93,10.66,0,1.47-1.47,2.21-3.39,2.21-5.32,0-1.93-.74-3.85-2.21-5.32l-27.92-27.92c-2.94-2.94-2.94-7.71,0-10.66,1.47-1.47,3.39-2.21,5.32-2.21,1.94,0,3.86.74,5.33,2.21l19.18,19.18c2.94,2.94,7.71,2.94,10.65,0,1.47-1.47,2.21-3.39,2.21-5.32,0-1.94-.74-3.86-2.21-5.33l-10.44-10.44c-2.95-2.95-2.95-7.71,0-10.66,1.47-1.47,3.39-2.21,5.33-2.21,1.92,0,3.85.74,5.32,2.21,0,0,9.38,9.38,13.69,13.69.65.65,1.41,1.16,2.24,1.51.88.36,1.83.54,2.79.53,15.88-.16,31.81,5.83,43.92,17.94,8.15,8.15,13.51,18.02,16.12,28.45.1.41.2.82.28,1.23,2.33,10.2,2.02,20.89-.93,30.96-.71,2.43-.04,5.07,1.76,6.87,3.23,3.23,7.91,7.91,7.91,7.91,2.94,2.94,2.94,7.72,0,10.66-1.47,1.47-3.39,2.21-5.32,2.2-1.94,0-3.86-.74-5.33-2.21l-10.44-10.44c-2.94-2.94-7.71-2.95-10.66,0-1.47,1.47-2.21,3.4-2.21,5.33,0,1.94.74,3.86,2.21,5.33l17.26,17.26c2.94,2.94,2.94,7.71,0,10.65Z"/>
      <g>
        <path class="cls-7" d="M138.58,58.79v45.62c0,4.44-3.63,8.07-8.08,8.07H48.55c-4.44,0-8.08-3.63-8.08-8.07v-45.62c0-4.44,3.63-8.08,8.08-8.08h81.96c4.44,0,8.08,3.63,8.08,8.08Z"/>
        <path class="cls-6" d="M138.58,59.9v1.89l-49.06,30.89-49.05-30.89v-1.89c0-4.44,3.63-8.08,8.08-8.08h81.96c4.44,0,8.08,3.63,8.08,8.08Z"/>
        <path class="cls-2" d="M41.78,59.9c0-3.72,3.05-6.77,6.77-6.77h81.96c3.72,0,6.77,3.05,6.77,6.77v45.62c0,3.72-3.05,6.77-6.77,6.77H48.55c-3.72,0-6.77-3.05-6.77-6.77v-12.13c0-.72-.59-1.31-1.31-1.31s-1.31.59-1.31,1.31v12.13c0,5.16,4.22,9.38,9.38,9.38h81.96c5.16,0,9.38-4.22,9.38-9.38v-45.62c0-5.16-4.22-9.38-9.38-9.38H48.55c-5.16,0-9.38,4.22-9.38,9.38,0,.72.59,1.31,1.31,1.31s1.31-.59,1.31-1.31Z"/>
        <g>
          <circle class="cls-9" cx="39.32" cy="64.31" r="17.9"/>
          <path class="cls-2" d="M55.92,64.31c0,9.16-7.44,16.59-16.6,16.59s-16.59-7.44-16.59-16.59,7.44-16.6,16.59-16.6c4.85,0,9.22,2.09,12.25,5.41.49.53,1.32.57,1.85.08.53-.49.57-1.32.08-1.85-3.51-3.85-8.57-6.26-14.18-6.26-10.6,0-19.21,8.61-19.21,19.21s8.61,19.21,19.21,19.21,19.21-8.61,19.21-19.21c0-.72-.59-1.31-1.31-1.31s-1.31.59-1.31,1.31Z"/>
          <path class="cls-3" d="M38.26,57.18l-2.92,2.01c-.86.59-2.04.37-2.63-.48-.59-.86-.37-2.04.48-2.63l5.88-4.05c.58-.4,1.33-.44,1.95-.12.62.33,1.01.97,1.01,1.67v19.58c0,1.04-.85,1.89-1.89,1.89s-1.89-.85-1.89-1.89v-15.99Z"/>
        </g>
      </g>
      <g>
        <path class="cls-5" d="M20.19,140.07l1.28-1.96c.59-.91.33-2.13-.58-2.72-.91-.59-2.13-.33-2.72.58l-1.28,1.96-1.96-1.28c-.91-.59-2.13-.33-2.72.58-.59.91-.33,2.13.58,2.72l1.96,1.28-1.28,1.96c-.59.91-.34,2.13.58,2.72.91.59,2.13.34,2.72-.58l1.28-1.96,1.96,1.28c.91.59,2.13.34,2.72-.58.59-.91.34-2.13-.58-2.72l-1.96-1.28Z"/>
        <path class="cls-8" d="M134.15,32.7c-3.2.68-6.36-1.38-7.04-4.58-.68-3.2,1.38-6.36,4.58-7.04s6.36,1.38,7.04,4.58c.68,3.2-1.38,6.36-4.58,7.04ZM132.4,24.43c-1.36.29-2.23,1.62-1.94,2.98.29,1.36,1.62,2.23,2.98,1.94,1.36-.29,2.23-1.62,1.94-2.98s-1.62-2.23-2.98-1.94Z"/>
        <path class="cls-9" d="M146.03,135.6c-3.2.68-6.36-1.38-7.04-4.58s1.38-6.36,4.58-7.04c.92-.2,1.83.4,2.03,1.32s-.4,1.83-1.32,2.03c-1.36.29-2.23,1.62-1.94,2.98.29,1.36,1.62,2.23,2.98,1.94s2.23-1.62,1.94-2.98c-.2-.92.4-1.83,1.32-2.03s1.83.4,2.03,1.32c.68,3.2-1.38,6.36-4.58,7.04Z"/>
        <g>
          <path class="cls-9" d="M16.02,19.07c-.12.02-.23.03-.34.03-.77,0-1.46-.54-1.63-1.33l-.42-1.99c-.09-.44-.02-.88.22-1.25.25-.38.62-.63,1.05-.72.9-.2,1.78.39,1.98,1.28l.42,1.99c.19.9-.39,1.78-1.28,1.98Z"/>
          <path class="cls-9" d="M17.79,27.4c-.12.03-.23.03-.34.03-.32,0-.63-.09-.91-.27-.37-.24-.62-.62-.72-1.05l-.42-1.99c-.19-.9.39-1.79,1.27-1.98.44-.09.88,0,1.25.23.38.25.63.62.73,1.05l.42,1.99c.19.9-.39,1.79-1.28,1.98Z"/>
          <path class="cls-9" d="M22.95,20.55c-.25.38-.62.63-1.05.72l-1.99.43c-.12.03-.23.03-.34.03-.77,0-1.46-.54-1.63-1.33-.09-.43,0-.87.23-1.25.24-.37.61-.62,1.04-.72l1.99-.42c.91-.19,1.79.39,1.98,1.28.09.44,0,.88-.23,1.25Z"/>
          <path class="cls-9" d="M14.31,22.34c-.24.38-.62.63-1.05.73l-1.99.42c-.11.03-.23.03-.34.03-.32,0-.63-.09-.91-.27-.38-.25-.62-.62-.72-1.05-.09-.44,0-.88.23-1.26.25-.37.62-.62,1.05-.72l1.99-.42c.44-.09.88,0,1.25.23.38.25.63.62.73,1.05.09.44,0,.88-.24,1.25Z"/>
        </g>
      </g>
    </g>
  </g>
</svg>